<mxfile host="app.diagrams.net" agent="Mozilla/5.0 (Macintosh; Intel Mac OS X 10.15; rv:130.0) Gecko/20100101 Firefox/130.0" version="24.7.16" pages="3">
  <diagram name="new buyer" id="nNX4QEM3W7Xng_duF3v0">
    <mxGraphModel dx="1325" dy="1164" grid="1" gridSize="10" guides="1" tooltips="1" connect="1" arrows="1" fold="1" page="0" pageScale="1" pageWidth="827" pageHeight="1169" math="0" shadow="0">
      <root>
        <mxCell id="0" />
        <mxCell id="1" parent="0" />
        <mxCell id="B6cMFsUkv6TwdQfZSbXi-1" value="Actor" style="shape=umlActor;verticalLabelPosition=bottom;verticalAlign=top;html=1;outlineConnect=0;" vertex="1" parent="1">
          <mxGeometry x="-120" y="-50" width="28" height="46" as="geometry" />
        </mxCell>
        <mxCell id="B6cMFsUkv6TwdQfZSbXi-2" value="Vertical Container" style="swimlane;whiteSpace=wrap;html=1;" vertex="1" parent="1">
          <mxGeometry x="-10" y="-80" width="150" height="140" as="geometry" />
        </mxCell>
        <mxCell id="B6cMFsUkv6TwdQfZSbXi-4" value="" style="rounded=1;whiteSpace=wrap;html=1;" vertex="1" parent="1">
          <mxGeometry x="240" y="-64" width="120" height="60" as="geometry" />
        </mxCell>
        <mxCell id="B6cMFsUkv6TwdQfZSbXi-11" style="edgeStyle=orthogonalEdgeStyle;rounded=0;orthogonalLoop=1;jettySize=auto;html=1;entryX=0.5;entryY=0;entryDx=0;entryDy=0;curved=1;exitX=1;exitY=0.5;exitDx=0;exitDy=0;exitPerimeter=0;" edge="1" parent="1" source="B6cMFsUkv6TwdQfZSbXi-5" target="B6cMFsUkv6TwdQfZSbXi-7">
          <mxGeometry relative="1" as="geometry" />
        </mxCell>
        <mxCell id="B6cMFsUkv6TwdQfZSbXi-5" value="Kafka" style="strokeWidth=1;html=1;shape=mxgraph.flowchart.direct_data;whiteSpace=wrap;" vertex="1" parent="1">
          <mxGeometry x="440" y="10" width="100" height="60" as="geometry" />
        </mxCell>
        <mxCell id="B6cMFsUkv6TwdQfZSbXi-6" style="edgeStyle=orthogonalEdgeStyle;rounded=0;orthogonalLoop=1;jettySize=auto;html=1;entryX=0;entryY=0.5;entryDx=0;entryDy=0;entryPerimeter=0;curved=1;" edge="1" parent="1" source="B6cMFsUkv6TwdQfZSbXi-4" target="B6cMFsUkv6TwdQfZSbXi-5">
          <mxGeometry relative="1" as="geometry" />
        </mxCell>
        <mxCell id="B6cMFsUkv6TwdQfZSbXi-7" value="Billie&lt;div&gt;Accounts&lt;/div&gt;" style="rounded=1;whiteSpace=wrap;html=1;" vertex="1" parent="1">
          <mxGeometry x="240" y="120" width="120" height="60" as="geometry" />
        </mxCell>
        <mxCell id="B6cMFsUkv6TwdQfZSbXi-8" value="" style="shape=cylinder3;whiteSpace=wrap;html=1;boundedLbl=1;backgroundOutline=1;size=15;" vertex="1" parent="1">
          <mxGeometry x="270" y="270" width="60" height="80" as="geometry" />
        </mxCell>
        <mxCell id="B6cMFsUkv6TwdQfZSbXi-9" style="edgeStyle=orthogonalEdgeStyle;rounded=0;orthogonalLoop=1;jettySize=auto;html=1;entryX=0.5;entryY=0;entryDx=0;entryDy=0;entryPerimeter=0;" edge="1" parent="1" source="B6cMFsUkv6TwdQfZSbXi-7" target="B6cMFsUkv6TwdQfZSbXi-8">
          <mxGeometry relative="1" as="geometry" />
        </mxCell>
        <mxCell id="B6cMFsUkv6TwdQfZSbXi-10" value="create new account" style="edgeLabel;html=1;align=center;verticalAlign=middle;resizable=0;points=[];" vertex="1" connectable="0" parent="B6cMFsUkv6TwdQfZSbXi-9">
          <mxGeometry y="-4" relative="1" as="geometry">
            <mxPoint as="offset" />
          </mxGeometry>
        </mxCell>
      </root>
    </mxGraphModel>
  </diagram>
  <diagram id="OQikNXpzmYDvLPTRbneu" name="existing buyer">
    <mxGraphModel dx="1094" dy="973" grid="1" gridSize="10" guides="1" tooltips="1" connect="1" arrows="1" fold="1" page="0" pageScale="1" pageWidth="827" pageHeight="1169" math="0" shadow="0">
      <root>
        <mxCell id="0" />
        <mxCell id="1" parent="0" />
        <mxCell id="buzYU4nQNOEXq_zJNcP5-1" value="Actor" style="shape=umlActor;verticalLabelPosition=bottom;verticalAlign=top;html=1;outlineConnect=0;" vertex="1" parent="1">
          <mxGeometry x="-120" y="-50" width="28" height="46" as="geometry" />
        </mxCell>
        <mxCell id="buzYU4nQNOEXq_zJNcP5-2" value="Vertical Container" style="swimlane;whiteSpace=wrap;html=1;" vertex="1" parent="1">
          <mxGeometry x="-10" y="-80" width="150" height="110" as="geometry" />
        </mxCell>
        <mxCell id="buzYU4nQNOEXq_zJNcP5-3" value="" style="rounded=1;whiteSpace=wrap;html=1;" vertex="1" parent="1">
          <mxGeometry x="240" y="-64" width="120" height="60" as="geometry" />
        </mxCell>
        <mxCell id="buzYU4nQNOEXq_zJNcP5-4" style="edgeStyle=orthogonalEdgeStyle;rounded=0;orthogonalLoop=1;jettySize=auto;html=1;entryX=0.5;entryY=0;entryDx=0;entryDy=0;curved=1;exitX=1;exitY=0.5;exitDx=0;exitDy=0;exitPerimeter=0;" edge="1" parent="1" source="buzYU4nQNOEXq_zJNcP5-5" target="buzYU4nQNOEXq_zJNcP5-7">
          <mxGeometry relative="1" as="geometry" />
        </mxCell>
        <mxCell id="buzYU4nQNOEXq_zJNcP5-5" value="Kafka" style="strokeWidth=1;html=1;shape=mxgraph.flowchart.direct_data;whiteSpace=wrap;" vertex="1" parent="1">
          <mxGeometry x="440" y="10" width="100" height="60" as="geometry" />
        </mxCell>
        <mxCell id="buzYU4nQNOEXq_zJNcP5-6" style="edgeStyle=orthogonalEdgeStyle;rounded=0;orthogonalLoop=1;jettySize=auto;html=1;entryX=0;entryY=0.5;entryDx=0;entryDy=0;entryPerimeter=0;curved=1;" edge="1" parent="1" source="buzYU4nQNOEXq_zJNcP5-3" target="buzYU4nQNOEXq_zJNcP5-5">
          <mxGeometry relative="1" as="geometry" />
        </mxCell>
        <mxCell id="buzYU4nQNOEXq_zJNcP5-7" value="Billie&lt;div&gt;Accounts&lt;/div&gt;" style="rounded=1;whiteSpace=wrap;html=1;" vertex="1" parent="1">
          <mxGeometry x="240" y="120" width="120" height="60" as="geometry" />
        </mxCell>
        <mxCell id="buzYU4nQNOEXq_zJNcP5-8" value="" style="shape=cylinder3;whiteSpace=wrap;html=1;boundedLbl=1;backgroundOutline=1;size=15;" vertex="1" parent="1">
          <mxGeometry x="270" y="270" width="60" height="80" as="geometry" />
        </mxCell>
        <mxCell id="buzYU4nQNOEXq_zJNcP5-9" style="edgeStyle=orthogonalEdgeStyle;rounded=0;orthogonalLoop=1;jettySize=auto;html=1;entryX=0.5;entryY=0;entryDx=0;entryDy=0;entryPerimeter=0;" edge="1" parent="1" source="buzYU4nQNOEXq_zJNcP5-7" target="buzYU4nQNOEXq_zJNcP5-8">
          <mxGeometry relative="1" as="geometry" />
        </mxCell>
        <mxCell id="buzYU4nQNOEXq_zJNcP5-10" value="create new account" style="edgeLabel;html=1;align=center;verticalAlign=middle;resizable=0;points=[];" vertex="1" connectable="0" parent="buzYU4nQNOEXq_zJNcP5-9">
          <mxGeometry y="-4" relative="1" as="geometry">
            <mxPoint as="offset" />
          </mxGeometry>
        </mxCell>
        <mxCell id="buzYU4nQNOEXq_zJNcP5-12" value="" style="endArrow=classic;html=1;rounded=0;exitX=0.5;exitY=1;exitDx=0;exitDy=0;entryX=0;entryY=0.5;entryDx=0;entryDy=0;" edge="1" parent="1" source="buzYU4nQNOEXq_zJNcP5-2" target="buzYU4nQNOEXq_zJNcP5-7">
          <mxGeometry width="50" height="50" relative="1" as="geometry">
            <mxPoint x="210" y="160" as="sourcePoint" />
            <mxPoint x="290" y="130" as="targetPoint" />
          </mxGeometry>
        </mxCell>
      </root>
    </mxGraphModel>
  </diagram>
  <diagram id="6t7sGmu9FomLmrirk2pb" name="model">
    <mxGraphModel dx="2074" dy="1157" grid="1" gridSize="10" guides="1" tooltips="1" connect="1" arrows="1" fold="1" page="1" pageScale="1" pageWidth="827" pageHeight="1169" math="0" shadow="0">
      <root>
        <mxCell id="0" />
        <mxCell id="1" parent="0" />
        <mxCell id="uUOorOfK8Ti8d8grX5sK-1" style="edgeStyle=orthogonalEdgeStyle;rounded=1;orthogonalLoop=1;jettySize=auto;html=1;curved=0;exitX=0.5;exitY=1;exitDx=0;exitDy=0;" edge="1" parent="1" source="uUOorOfK8Ti8d8grX5sK-4" target="uUOorOfK8Ti8d8grX5sK-5">
          <mxGeometry relative="1" as="geometry" />
        </mxCell>
        <mxCell id="uUOorOfK8Ti8d8grX5sK-2" style="edgeStyle=orthogonalEdgeStyle;rounded=1;orthogonalLoop=1;jettySize=auto;html=1;entryX=0.5;entryY=0;entryDx=0;entryDy=0;curved=0;" edge="1" parent="1" source="uUOorOfK8Ti8d8grX5sK-4" target="uUOorOfK8Ti8d8grX5sK-6">
          <mxGeometry relative="1" as="geometry" />
        </mxCell>
        <mxCell id="uUOorOfK8Ti8d8grX5sK-3" style="edgeStyle=orthogonalEdgeStyle;rounded=1;orthogonalLoop=1;jettySize=auto;html=1;curved=0;" edge="1" parent="1" source="uUOorOfK8Ti8d8grX5sK-4" target="uUOorOfK8Ti8d8grX5sK-7">
          <mxGeometry relative="1" as="geometry" />
        </mxCell>
        <mxCell id="uUOorOfK8Ti8d8grX5sK-4" value="Billie Account" style="rounded=1;whiteSpace=wrap;html=1;" vertex="1" parent="1">
          <mxGeometry x="190" y="110" width="200" height="60" as="geometry" />
        </mxCell>
        <mxCell id="uUOorOfK8Ti8d8grX5sK-5" value="Email" style="rounded=1;whiteSpace=wrap;html=1;" vertex="1" parent="1">
          <mxGeometry x="100" y="240" width="80" height="40" as="geometry" />
        </mxCell>
        <mxCell id="uUOorOfK8Ti8d8grX5sK-6" value="Country" style="rounded=1;whiteSpace=wrap;html=1;" vertex="1" parent="1">
          <mxGeometry x="200" y="240" width="80" height="40" as="geometry" />
        </mxCell>
        <mxCell id="uUOorOfK8Ti8d8grX5sK-7" value="Organisation" style="rounded=1;whiteSpace=wrap;html=1;" vertex="1" parent="1">
          <mxGeometry x="320" y="240" width="80" height="40" as="geometry" />
        </mxCell>
      </root>
    </mxGraphModel>
  </diagram>
</mxfile>
